<svg xmlns="http://www.w3.org/2000/svg" viewBox="0 0 320 420"><defs><linearGradient id="b" x1="0" y1="0" x2="0" y2="1"><stop stop-color="#0b1b30"/><stop offset="1" stop-color="#07121f"/></linearGradient><radialGradient id="m"><stop stop-color="#f8e5b2"/><stop offset="1" stop-color="#b68c4a"/></radialGradient></defs><rect width="320" height="420" fill="url(#b)"/><circle cx="224" cy="96" r="45" fill="url(#m)"/><circle cx="240" cy="86" r="45" fill="#0b1b30"/><path d="M0 306 68 230l56 42 68-91 51 64 77-53v228H0Z" fill="#13263c"/><path d="M0 338 62 294l48 26 62-54 55 48 93-56v162H0Z" fill="#08131f"/><path d="M30 345c80-18 160-18 240 0M58 370c60-12 120-12 180 0" fill="none" stroke="#d6b26e" opacity=".18"/><circle cx="50" cy="70" r="2" fill="#d6b26e"/><circle cx="92" cy="118" r="1.5" fill="#fff" opacity=".5"/></svg>